<svg width="212" height="45" viewBox="0 0 212 45" fill="none" xmlns="http://www.w3.org/2000/svg">
<g clip-path="url(#clip0)">
<path d="M20.0001 22.578V44.0645L1.43066 33.3663V11.7903L20.0001 22.578Z" stroke="#6100FF" stroke-width="2" stroke-miterlimit="10" stroke-linecap="round" stroke-linejoin="round"/>
<path d="M20.0015 22.5417L1.43213 11.7534L20.0015 1.05518L38.5709 11.7534V11.7674L20.0022 22.5504" stroke="#6100FF" stroke-width="2" stroke-miterlimit="10" stroke-linecap="round" stroke-linejoin="round"/>
<path d="M38.5692 11.8042V33.1879L36.8528 34.193L20.0005 44.0464V22.5872L38.5692 11.8042Z" stroke="#6100FF" stroke-width="2" stroke-miterlimit="10" stroke-linecap="round" stroke-linejoin="round"/>
<path d="M20.5249 21.0013L17.2051 19.0779L15.8766 21.3867L19.1965 23.3101L20.5249 21.0013Z" fill="white"/>
<path d="M21.3301 26.1722V22.3254H18.6732V26.1722H21.3301Z" fill="white"/>
<path d="M20.8056 23.3111L24.1255 21.3877L22.7971 19.0789L19.4772 21.0023L20.8056 23.3111Z" fill="white"/>
<path d="M19.1973 23.3109H20.8052L20.738 21.6299L19.379 21.3401L19.1973 23.3109Z" fill="white"/>
<path d="M20.5249 42.6905L17.2051 40.7671L15.8766 43.0759L19.1965 44.9993L20.5249 42.6905Z" fill="white"/>
<path d="M20.8056 45.001L24.1255 43.0776L22.7971 40.7688L19.4772 42.6922L20.8056 45.001Z" fill="white"/>
<path d="M19.1973 45.0001H20.8052L20.738 43.3191L19.379 43.0293L19.1973 45.0001Z" fill="white"/>
<path d="M19.477 2.30879L22.7969 4.23218L24.1253 1.92339L20.8055 3.25784e-06L19.477 2.30879Z" fill="white"/>
<path d="M19.1968 0.000437596L15.877 1.92383L17.2054 4.23261L20.5252 2.30922L19.1968 0.000437596Z" fill="white"/>
<path d="M20.8052 0H19.1973L19.2645 1.68096L20.6242 1.97081L20.8052 0Z" fill="white"/>
<path d="M37.8443 31.9651L34.5459 33.925L35.8996 36.2189L39.198 34.259L37.8443 31.9651Z" fill="white"/>
<path d="M39.9927 32.8532L39.9502 29.0068L37.2936 29.0364L37.3362 32.8828L39.9927 32.8532Z" fill="white"/>
<path d="M39.2012 34.259L39.9892 32.8532L38.4971 32.0879L37.5786 33.1344L39.2012 34.259Z" fill="white"/>
<path d="M0.787065 34.2613L4.08545 36.2212L5.43912 33.9273L2.14074 31.9674L0.787065 34.2613Z" fill="white"/>
<path d="M2.65764 32.8816L2.7002 29.0352L0.0436016 29.0056L0.0010492 32.852L2.65764 32.8816Z" fill="white"/>
<path d="M0.788672 34.259L0 32.8532L1.49282 32.0879L2.41127 33.1344L0.788672 34.259Z" fill="white"/>
<path d="M0.150665 11.8241L0.16748 15.6709L2.82434 15.6592L2.80753 11.8124L0.150665 11.8241Z" fill="white"/>
<path d="M2.28673 12.7266L5.59814 10.7886L4.25962 8.48566L0.948201 10.4237L2.28673 12.7266Z" fill="white"/>
<path d="M0.150879 11.8241L0.948203 10.4236L2.36914 11.3158L1.94586 12.6442L0.150879 11.8241Z" fill="white"/>
<path d="M37.343 11.8119L37.3262 15.6587L39.983 15.6704L39.9998 11.8236L37.343 11.8119Z" fill="white"/>
<path d="M39.2011 10.4236L35.8896 8.4856L34.5511 10.7885L37.8625 12.7265L39.2011 10.4236Z" fill="white"/>
<path d="M39.9997 11.8241L39.2017 10.4236L37.7808 11.3158L38.2047 12.6442L39.9997 11.8241Z" fill="white"/>
</g>
<path d="M71.451 27.091C71.451 27.9072 71.2645 28.5718 70.8913 29.0849C70.6581 29.4347 70.2617 29.9011 69.702 30.4841C69.1423 31.0438 68.6876 31.4169 68.3378 31.6034C67.5915 32.0232 66.8686 32.2331 66.169 32.2331H60.0824C58.5666 32.2331 57.0858 31.2653 55.6399 29.3297C55.5 29.1432 55.2901 28.7817 55.0103 28.2453L58.4733 27.091C58.9397 27.7439 59.4528 28.2803 60.0124 28.7001C60.0591 28.7234 60.1407 28.735 60.2573 28.735H65.9941L66.204 28.7001C66.4605 28.5601 66.787 28.292 67.1834 27.8955C67.5799 27.4991 67.7781 27.2309 67.7781 27.091V25.0271C67.7781 24.6773 67.6382 24.4791 67.3583 24.4325L58.2634 21.8439C57.4006 21.6107 56.7243 21.1326 56.2346 20.4097C55.7682 19.6868 55.535 18.8939 55.535 18.0311V16.1421C55.535 15.3259 55.7099 14.6613 56.0597 14.1482C56.2929 13.8218 56.6893 13.3787 57.249 12.819C57.832 12.236 58.2984 11.8395 58.6482 11.6296C59.3945 11.2099 60.1174 11 60.817 11H65.9941C67.4866 11 68.9674 11.9678 70.4366 13.9034C70.6698 14.2299 70.903 14.638 71.1362 15.1277L67.6032 16.1421C67.0668 15.3725 66.5538 14.8362 66.064 14.533C66.0407 14.5097 65.9708 14.498 65.8542 14.498H60.9219L60.7121 14.533C60.4322 14.6729 60.1057 14.9295 59.7326 15.3026C59.3828 15.6757 59.2079 15.9322 59.2079 16.0722V17.8212C59.2079 18.171 59.3362 18.3692 59.5927 18.4158L68.7226 21.0743C69.5621 21.3075 70.2267 21.7973 70.7164 22.5435C71.2062 23.2664 71.451 24.0477 71.451 24.8872V27.091Z" fill="white"/>
<path d="M89.8608 14.638H84.194V32.0582H80.521V14.638H74.8542V11.1399H89.8608V14.638Z" fill="white"/>
<path d="M108.505 32.0582H104.587L103.048 27.6157H95.1073L93.5682 32.0582H89.6504L96.9613 11.1399H101.229L108.505 32.0582ZM101.894 24.1176L99.0951 15.8623L96.2617 24.1176H101.894Z" fill="white"/>
<path d="M126.059 19.0455C126.059 19.8384 125.849 20.5496 125.429 21.1793C125.266 21.4125 124.975 21.739 124.555 22.1587C124.135 22.5552 123.797 22.8467 123.54 23.0332C123.237 23.2664 122.934 23.4297 122.631 23.523L126.794 32.0582H122.806L118.923 23.8028H114.9V32.0582H111.227V11.1399H121.057C121.99 11.1399 122.817 11.3964 123.54 11.9095C123.774 12.0727 124.1 12.3759 124.52 12.819C124.963 13.2621 125.266 13.6002 125.429 13.8334C125.849 14.4631 126.059 15.1743 126.059 15.9672V19.0455ZM122.386 19.0105V16.0022C122.386 15.8856 122.374 15.804 122.351 15.7573C121.955 15.0577 121.581 14.6846 121.232 14.638H114.9V20.3048H121.057C121.22 20.3048 121.442 20.1765 121.721 19.92C122.001 19.6635 122.211 19.4069 122.351 19.1504C122.374 19.1038 122.386 19.0571 122.386 19.0105Z" fill="white"/>
<path d="M154.549 28.0005C154.316 28.5368 154.071 28.9799 153.814 29.3297C152.368 31.2653 150.888 32.2331 149.372 32.2331H144.999C144.23 32.2331 143.507 32.0232 142.83 31.6034C142.481 31.3936 142.026 31.0088 141.466 30.4491C140.906 29.8894 140.51 29.4463 140.277 29.1198C139.904 28.5601 139.717 27.8955 139.717 27.1259V16.1071C139.717 15.3609 139.904 14.7079 140.277 14.1482C140.51 13.7984 140.906 13.3437 141.466 12.784C142.049 12.201 142.504 11.8162 142.83 11.6296C143.577 11.2099 144.3 11 144.999 11H149.372C150.864 11 152.345 11.9678 153.814 13.9034C153.954 14.0899 154.199 14.498 154.549 15.1277L150.981 16.1421C150.281 15.2793 149.756 14.7429 149.407 14.533C149.383 14.5097 149.337 14.498 149.267 14.498H145.139L144.999 14.533C144.393 14.8595 143.868 15.3725 143.425 16.0722C143.402 16.1188 143.39 16.2471 143.39 16.4569V27.091C143.39 27.2775 143.577 27.5574 143.95 27.9305C144.346 28.2803 144.696 28.5368 144.999 28.7001C145.022 28.7234 145.104 28.735 145.244 28.735H149.232C149.302 28.735 149.36 28.7234 149.407 28.7001C149.617 28.6068 149.85 28.4202 150.106 28.1404C150.386 27.8605 150.608 27.604 150.771 27.3708L150.981 27.056L154.549 28.0005Z" fill="white"/>
<path d="M171.68 27.6507C171.68 28.5368 171.482 29.2481 171.085 29.7845C170.665 30.4141 170.106 30.9854 169.406 31.4985C168.707 31.9882 167.855 32.2331 166.853 32.2331H163.564C162.585 32.2331 161.745 31.9882 161.046 31.4985C160.789 31.3119 160.474 31.0321 160.101 30.659C159.728 30.2858 159.472 29.9943 159.332 29.7845C158.935 29.2481 158.737 28.5368 158.737 27.6507V21.3542C158.737 20.468 158.935 19.7568 159.332 19.2204C159.705 18.6607 160.276 18.101 161.046 17.5413C161.769 17.0283 162.608 16.7718 163.564 16.7718H166.853C167.832 16.7718 168.683 17.0283 169.406 17.5413C170.129 18.0777 170.689 18.6374 171.085 19.2204C171.482 19.7568 171.68 20.468 171.68 21.3542V27.6507ZM162.235 21.4591V27.8256C162.235 28.0821 162.62 28.4319 163.39 28.875C163.436 28.8983 163.506 28.9099 163.599 28.9099H166.818C166.864 28.9099 166.934 28.8866 167.027 28.84C167.774 28.4202 168.159 28.0821 168.182 27.8256V21.4591C168.182 21.3892 168.17 21.3192 168.147 21.2492C167.867 20.7828 167.482 20.4097 166.993 20.1299C166.946 20.1066 166.888 20.0949 166.818 20.0949H163.599C163.529 20.0949 163.471 20.1066 163.425 20.1299C162.911 20.433 162.527 20.8062 162.27 21.2492L162.235 21.4591Z" fill="white"/>
<path d="M188.17 20.1649L184.917 21.1443C184.381 20.4447 183.856 20.0949 183.343 20.0949H181.454C180.825 20.0949 180.113 20.5963 179.32 21.5991V32.0582H175.822V20.0599L175.542 16.9467H178.936L179.11 17.7862C180.043 17.1099 180.79 16.7718 181.349 16.7718H183.448C184.334 16.7718 185.197 17.0633 186.037 17.6463C186.41 17.9261 186.818 18.3226 187.261 18.8356C187.704 19.3253 188.007 19.7684 188.17 20.1649Z" fill="white"/>
<path d="M203.352 27.6157C203.352 28.4785 203.143 29.2015 202.723 29.7845C202.186 30.5307 201.627 31.1021 201.044 31.4985C200.344 31.9882 199.505 32.2331 198.525 32.2331H195.972C195.365 32.2331 194.677 31.9649 193.908 31.4285V37.76H190.41V20.0599L190.095 16.9467H193.558L193.698 17.7162C194.514 17.0866 195.272 16.7718 195.972 16.7718H198.525C199.505 16.7718 200.344 17.0283 201.044 17.5413C201.743 18.0544 202.303 18.6257 202.723 19.2554C203.143 19.8617 203.352 20.5846 203.352 21.4241V27.6157ZM199.854 27.5457V21.4941L199.819 21.2842C199.563 20.8411 199.19 20.468 198.7 20.1649C198.607 20.1182 198.537 20.0949 198.49 20.0949H196.076C195.89 20.0949 195.54 20.2931 195.027 20.6896C194.537 21.0627 194.164 21.3892 193.908 21.669V27.3708C194.164 27.6507 194.537 27.9771 195.027 28.3503C195.54 28.7234 195.89 28.9099 196.076 28.9099H198.49C198.583 28.9099 198.653 28.8983 198.7 28.875C199.166 28.5718 199.54 28.187 199.819 27.7206C199.843 27.674 199.854 27.6157 199.854 27.5457Z" fill="white"/>
<path d="M212 32.0582H207.697V27.6507H212V32.0582Z" fill="white"/>
<defs>
<clipPath id="clip0">
<rect width="40" height="45" fill="white"/>
</clipPath>
</defs>
</svg>
